<svg viewBox="0 0 14 14" xmlns="http://www.w3.org/2000/svg">
<path d="M11.996 9.12293L10.1579 8.91306C9.71641 8.8624 9.28221 9.01437 8.97102 9.32556L7.63945 10.6571C5.59144 9.61503 3.91251 7.94332 2.87041 5.88806L4.20922 4.54925C4.5204 4.23807 4.67237 3.80386 4.62171 3.36241L4.41185 1.53873C4.325 0.807811 3.70988 0.257812 2.97173 0.257812H1.71976C0.902004 0.257812 0.221746 0.938074 0.272403 1.75584C0.655953 7.93609 5.59868 12.8716 11.7717 13.2552C12.5894 13.3058 13.2697 12.6256 13.2697 11.8078V10.5558C13.2769 9.8249 12.7269 9.20977 11.996 9.12293Z" fill="#212121"/>
</svg>
